<?xml version="1.0" standalone="no"?>
<!DOCTYPE svg PUBLIC "-//W3C//DTD SVG 20010904//EN"
 "http://www.w3.org/TR/2001/REC-SVG-20010904/DTD/svg10.dtd">
<svg version="1.0" xmlns="http://www.w3.org/2000/svg"
 width="200.000000pt" height="200.000000pt" viewBox="0 0 200.000000 200.000000"
 preserveAspectRatio="xMidYMid meet">

<g transform="translate(0.000000,200.000000) scale(0.100000,-0.100000)"
fill="#000000" stroke="none">
<path d="M207 1773 c-12 -12 -8 -158 5 -171 17 -17 1499 -17 1516 0 12 12 17
134 6 162 -6 14 -82 16 -763 16 -417 0 -761 -3 -764 -7z"/>
<path d="M320 1516 c0 -3 92 -167 205 -365 l205 -361 0 -273 c0 -274 3 -297
36 -297 12 0 409 214 432 232 9 8 12 38 10 106 l-3 95 -42 12 c-99 29 -203
118 -249 211 -102 208 -14 459 194 557 63 30 74 32 177 32 106 0 113 -1 180
-35 39 -19 73 -36 77 -38 6 -3 78 112 78 124 0 2 -292 4 -650 4 -357 0 -650
-2 -650 -4z"/>
<path d="M1193 1395 c-105 -29 -195 -112 -234 -214 -30 -79 -24 -196 14 -273
79 -161 270 -234 441 -168 28 10 32 7 131 -89 103 -101 126 -113 179 -99 41
11 65 35 72 75 10 51 -9 81 -110 182 l-93 92 20 57 c37 111 6 248 -78 341 -79
87 -226 129 -342 96z m203 -79 c103 -48 156 -126 162 -242 5 -93 -21 -157 -90
-219 -145 -130 -367 -79 -445 102 -27 62 -22 159 11 226 66 136 228 196 362
133z"/>
<path d="M1207 1265 c-50 -17 -89 -54 -85 -80 4 -29 31 -29 73 -1 21 15 50 26
66 26 26 0 59 22 59 39 0 31 -51 39 -113 16z"/>
</g>
</svg>
